<svg width="22" height="22" viewBox="0 0 22 22" fill="none" xmlns="http://www.w3.org/2000/svg">
<path d="M16.6572 22H5.65718C3.83464 22 2.35718 20.5225 2.35718 18.7V7.7C2.35718 6.48497 3.34215 5.5 4.55718 5.5H17.7572C18.9722 5.5 19.9572 6.48497 19.9572 7.7V18.7C19.9572 20.5225 18.4797 22 16.6572 22Z" fill="#64A644"/>
<path d="M16.6572 22H5.65718C3.83464 22 2.35718 20.5225 2.35718 18.7V7.7C2.35718 6.48497 3.34215 5.5 4.55718 5.5H17.7572C18.9722 5.5 19.9572 6.48497 19.9572 7.7V18.7C19.9572 20.5225 18.4797 22 16.6572 22Z" fill="#CEFFB6"/>
<path fill-rule="evenodd" clip-rule="evenodd" d="M14.4571 9.9C14.1653 9.90017 13.8854 9.78433 13.6791 9.578C13.4728 9.37167 13.3569 9.09179 13.3571 8.8V4.4C13.3571 3.18497 12.3721 2.2 11.1571 2.2C9.94205 2.2 8.95708 3.18497 8.95708 4.4V8.8C8.95708 9.40751 8.46459 9.9 7.85708 9.9C7.24957 9.9 6.75708 9.40751 6.75708 8.8V4.4C6.75708 1.96995 8.72703 0 11.1571 0C13.5871 0 15.5571 1.96995 15.5571 4.4V8.8C15.5572 9.09179 15.4414 9.37167 15.2351 9.578C15.0288 9.78433 14.7489 9.90017 14.4571 9.9Z" fill="#7BBF5A"/>
</svg>
