<?xml version="1.0" encoding="UTF-8"?><svg id="Layer_2" xmlns="http://www.w3.org/2000/svg" viewBox="0 0 70.92 38.23"><defs><style>.cls-1{fill:#64a644;}.cls-1,.cls-2{stroke-width:0px;}.cls-2{fill:#03a6de;}</style></defs><g id="Layer_1-2"><path class="cls-2" d="m10.17,17.79c-2.28-2.82-4.52-5.58-6.77-8.37,0,.03-.03.03-.03.03v19.32H0V0c3.4,4.18,6.77,8.3,10.17,12.45,3.37-4.15,6.73-8.27,10.14-12.45v5.14c0,.14-.03.27-.14.37-1.97,2.45-3.98,4.9-5.99,7.35-1.33,1.6-2.62,3.2-3.95,4.8,0,.03-.03.07-.07.14h0Z"/><path class="cls-2" d="m21.97,11.6c-3.91,4.93-7.86,9.83-11.8,14.76-.27-.31-.51-.61-.75-.92-1.43-1.77-2.82-3.5-4.25-5.27-.03-.07-.1-.17-.1-.27v-5.07c0-.07.03-.1.03-.17,1.7,2.11,3.37,4.18,5.07,6.29,5.07-6.36,10.14-12.69,15.24-19.05v26.87h-3.37V11.63s-.03-.03-.07-.03h0Z"/><path class="cls-2" d="m20.31,28.78h-3.33v-7.65c0-.14,0-.24.07-.34,1.05-1.33,2.11-2.62,3.16-3.95.03-.03.03-.07.1-.07v12.01Z"/><polygon class="cls-2" points="3.37 28.78 0 28.78 0 0 3.37 4.12 3.37 28.78"/><polygon class="cls-2" points="31.09 17.89 35.14 17.89 35.14 20.58 31.09 20.58 31.09 26.09 36.19 26.09 36.19 28.78 28.13 28.78 28.13 9.97 36.19 9.97 36.19 12.65 31.09 12.65 31.09 17.89"/><path class="cls-2" d="m40.95,12.65v13.44h1.67c.95,0,1.53-.51,1.53-1.84v-9.8c0-1.33-.58-1.8-1.53-1.8h-1.67Zm-2.93-2.69h4.66c2.96,0,4.39,1.63,4.39,4.63v9.52c0,2.99-1.43,4.66-4.39,4.66h-4.66V9.97Z"/><path class="cls-2" d="m52.65,14.29c0-1.36.58-1.87,1.53-1.87s1.53.51,1.53,1.87v1.7l2.72-3.37c-.58-1.87-2.01-2.89-4.25-2.89-2.89,0-4.49,1.73-4.49,4.73v9.05l2.96-3.67v-5.54Z"/><path class="cls-1" d="m29.52,32.72v2.14h.44c.34,0,.51-.14.51-.58v-.95c0-.48-.17-.61-.51-.61h-.44Zm1.94.68v.82c0,1.02-.48,1.56-1.5,1.56h-.44v2.38h-1.02v-6.33h1.46c1.02,0,1.5.54,1.5,1.56h0Z"/><polygon class="cls-1" points="34.73 38.16 33.74 38.16 33.74 31.84 34.73 31.84 34.73 34.52 35.85 34.52 35.85 31.84 36.87 31.84 36.87 38.16 35.85 38.16 35.85 35.44 34.73 35.44 34.73 38.16"/><path class="cls-1" d="m40.37,36.16h.95l-.48-3.2h-.03l-.44,3.2Zm2.24,2.01h-.99l-.17-1.16h-1.22l-.17,1.16h-.92l1.02-6.33h1.46l.99,6.33Z"/><path class="cls-1" d="m45.89,32.72v1.94h.41c.37,0,.58-.14.58-.65v-.65c0-.44-.14-.65-.48-.65h-.51Zm1.09,5.44c-.03-.17-.07-.27-.07-.78v-.99c0-.61-.2-.82-.65-.82h-.37v2.59h-.99v-6.33h1.5c1.05,0,1.5.48,1.5,1.43v.51c0,.65-.2,1.05-.65,1.29h0c.48.2.65.68.65,1.33v.99c0,.31,0,.54.1.78h-1.02Z"/><polygon class="cls-1" points="52.45 36.33 52.48 36.33 53.13 31.84 54.52 31.84 54.52 38.16 53.57 38.16 53.57 33.61 53.57 33.61 52.89 38.16 51.94 38.16 51.23 33.67 51.23 33.67 51.23 38.16 50.34 38.16 50.34 31.84 51.74 31.84 52.45 36.33"/><path class="cls-1" d="m57.99,36.16h.99l-.48-3.2h-.03l-.48,3.2Zm2.28,2.01h-.99l-.17-1.16h-1.22l-.17,1.16h-.92l1.02-6.33h1.43l1.02,6.33Z"/><path class="cls-1" d="m65.44,35.78v.85c0,1.02-.51,1.6-1.5,1.6s-1.5-.58-1.5-1.6v-3.3c0-1.02.51-1.6,1.5-1.6s1.5.58,1.5,1.6v.61h-.95v-.68c0-.44-.2-.61-.51-.61-.34,0-.51.17-.51.61v3.44c0,.44.17.61.51.61.31,0,.51-.17.51-.61v-.92h.95Z"/><polygon class="cls-1" points="68.67 36.06 67.42 31.84 68.47 31.84 69.22 34.69 69.22 34.69 69.97 31.84 70.92 31.84 69.66 36.06 69.66 38.16 68.67 38.16 68.67 36.06"/><polygon class="cls-1" points="63.27 15.14 63.2 15.14 63.2 28.78 60.55 28.78 60.55 9.97 64.25 9.97 67.25 21.22 67.28 21.22 67.28 9.97 69.93 9.97 69.93 28.78 66.87 28.78 63.27 15.14"/><path class="cls-1" d="m55.72,24.42c0,1.36-.58,1.87-1.53,1.87s-1.53-.51-1.53-1.87v-1.53l-2.69,3.33c.58,1.77,2.04,2.76,4.22,2.76,2.89,0,4.49-1.73,4.49-4.73v-8.88l-2.96,3.67v5.37Z"/></g></svg>